<mxfile host="Electron" agent="Mozilla/5.0 (Windows NT 10.0; Win64; x64) AppleWebKit/537.36 (KHTML, like Gecko) draw.io/24.7.17 Chrome/128.0.6613.36 Electron/32.0.1 Safari/537.36" version="24.7.17">
  <diagram name="第 1 页" id="dU6AHeaaaQLUMFyGTMJD">
    <mxGraphModel dx="2474" dy="1196" grid="1" gridSize="10" guides="1" tooltips="1" connect="1" arrows="1" fold="1" page="0" pageScale="1" pageWidth="1169" pageHeight="827" math="1" shadow="0">
      <root>
        <mxCell id="0" />
        <mxCell id="1" parent="0" />
        <mxCell id="jE0ygbh70ySa5CUfQvLE-28" value="" style="rounded=0;whiteSpace=wrap;html=1;fontFamily=Helvetica;fontSize=11;fontColor=default;labelBackgroundColor=default;fillColor=none;" vertex="1" parent="1">
          <mxGeometry x="150" y="330" width="440" height="200" as="geometry" />
        </mxCell>
        <mxCell id="jE0ygbh70ySa5CUfQvLE-7" value="" style="edgeStyle=orthogonalEdgeStyle;rounded=0;orthogonalLoop=1;jettySize=auto;html=1;" edge="1" parent="1" source="jE0ygbh70ySa5CUfQvLE-1" target="jE0ygbh70ySa5CUfQvLE-2">
          <mxGeometry relative="1" as="geometry" />
        </mxCell>
        <mxCell id="jE0ygbh70ySa5CUfQvLE-1" value="拉取语音数据" style="rounded=0;whiteSpace=wrap;html=1;fontFamily=HarmonyOS Sans SC;fontSize=20;" vertex="1" parent="1">
          <mxGeometry x="100" width="160" height="60" as="geometry" />
        </mxCell>
        <mxCell id="jE0ygbh70ySa5CUfQvLE-8" value="" style="edgeStyle=orthogonalEdgeStyle;rounded=0;orthogonalLoop=1;jettySize=auto;html=1;" edge="1" parent="1" source="jE0ygbh70ySa5CUfQvLE-2" target="jE0ygbh70ySa5CUfQvLE-3">
          <mxGeometry relative="1" as="geometry" />
        </mxCell>
        <mxCell id="jE0ygbh70ySa5CUfQvLE-2" value="数据格式化" style="rounded=0;whiteSpace=wrap;html=1;fontFamily=HarmonyOS Sans SC;fontSize=20;" vertex="1" parent="1">
          <mxGeometry x="340" width="160" height="60" as="geometry" />
        </mxCell>
        <mxCell id="jE0ygbh70ySa5CUfQvLE-9" value="" style="edgeStyle=orthogonalEdgeStyle;rounded=0;orthogonalLoop=1;jettySize=auto;html=1;" edge="1" parent="1" source="jE0ygbh70ySa5CUfQvLE-3" target="jE0ygbh70ySa5CUfQvLE-4">
          <mxGeometry relative="1" as="geometry" />
        </mxCell>
        <mxCell id="jE0ygbh70ySa5CUfQvLE-3" value="调用语音&lt;div&gt;识别引擎&lt;/div&gt;" style="rounded=0;whiteSpace=wrap;html=1;fontFamily=HarmonyOS Sans SC;fontSize=20;" vertex="1" parent="1">
          <mxGeometry x="580" width="160" height="60" as="geometry" />
        </mxCell>
        <mxCell id="jE0ygbh70ySa5CUfQvLE-4" value="文本结果" style="rounded=0;whiteSpace=wrap;html=1;fontFamily=HarmonyOS Sans SC;fontSize=20;fillColor=none;strokeColor=none;" vertex="1" parent="1">
          <mxGeometry x="820" width="100" height="60" as="geometry" />
        </mxCell>
        <mxCell id="jE0ygbh70ySa5CUfQvLE-6" value="" style="edgeStyle=orthogonalEdgeStyle;rounded=0;orthogonalLoop=1;jettySize=auto;html=1;" edge="1" parent="1" source="jE0ygbh70ySa5CUfQvLE-5" target="jE0ygbh70ySa5CUfQvLE-1">
          <mxGeometry relative="1" as="geometry" />
        </mxCell>
        <mxCell id="jE0ygbh70ySa5CUfQvLE-5" value="音频信息" style="rounded=0;whiteSpace=wrap;html=1;fontFamily=HarmonyOS Sans SC;fontSize=20;fillColor=none;strokeColor=none;" vertex="1" parent="1">
          <mxGeometry x="-80" width="100" height="60" as="geometry" />
        </mxCell>
        <mxCell id="jE0ygbh70ySa5CUfQvLE-20" value="" style="edgeStyle=orthogonalEdgeStyle;rounded=0;orthogonalLoop=1;jettySize=auto;html=1;" edge="1" parent="1" source="jE0ygbh70ySa5CUfQvLE-10" target="jE0ygbh70ySa5CUfQvLE-13">
          <mxGeometry relative="1" as="geometry" />
        </mxCell>
        <mxCell id="jE0ygbh70ySa5CUfQvLE-10" value="\(f_1\)" style="ellipse;whiteSpace=wrap;html=1;aspect=fixed;fontFamily=HarmonyOS Sans SC;fontSize=20;fillColor=#dae8fc;strokeColor=#6c8ebf;" vertex="1" parent="1">
          <mxGeometry x="160" y="160" width="60" height="60" as="geometry" />
        </mxCell>
        <mxCell id="jE0ygbh70ySa5CUfQvLE-21" value="" style="edgeStyle=orthogonalEdgeStyle;rounded=0;orthogonalLoop=1;jettySize=auto;html=1;" edge="1" parent="1" source="jE0ygbh70ySa5CUfQvLE-13" target="jE0ygbh70ySa5CUfQvLE-14">
          <mxGeometry relative="1" as="geometry" />
        </mxCell>
        <mxCell id="jE0ygbh70ySa5CUfQvLE-13" value="\(f_2\)" style="ellipse;whiteSpace=wrap;html=1;aspect=fixed;fontFamily=HarmonyOS Sans SC;fontSize=20;fillColor=#dae8fc;strokeColor=#6c8ebf;" vertex="1" parent="1">
          <mxGeometry x="280" y="160" width="60" height="60" as="geometry" />
        </mxCell>
        <mxCell id="jE0ygbh70ySa5CUfQvLE-14" value="\(f_3\)" style="ellipse;whiteSpace=wrap;html=1;aspect=fixed;fontFamily=HarmonyOS Sans SC;fontSize=20;fillColor=#dae8fc;strokeColor=#6c8ebf;" vertex="1" parent="1">
          <mxGeometry x="400" y="160" width="60" height="60" as="geometry" />
        </mxCell>
        <mxCell id="jE0ygbh70ySa5CUfQvLE-22" style="rounded=0;orthogonalLoop=1;jettySize=auto;html=1;" edge="1" parent="1" source="jE0ygbh70ySa5CUfQvLE-15" target="jE0ygbh70ySa5CUfQvLE-17">
          <mxGeometry relative="1" as="geometry" />
        </mxCell>
        <mxCell id="jE0ygbh70ySa5CUfQvLE-24" style="edgeStyle=none;shape=connector;rounded=0;orthogonalLoop=1;jettySize=auto;html=1;strokeColor=default;align=center;verticalAlign=middle;fontFamily=Helvetica;fontSize=11;fontColor=default;labelBackgroundColor=default;endArrow=classic;" edge="1" parent="1" source="jE0ygbh70ySa5CUfQvLE-15" target="jE0ygbh70ySa5CUfQvLE-16">
          <mxGeometry relative="1" as="geometry" />
        </mxCell>
        <mxCell id="jE0ygbh70ySa5CUfQvLE-15" value="\(f_1\)" style="ellipse;whiteSpace=wrap;html=1;aspect=fixed;fontFamily=HarmonyOS Sans SC;fontSize=20;fillColor=#f8cecc;strokeColor=#b85450;" vertex="1" parent="1">
          <mxGeometry x="160" y="400" width="60" height="60" as="geometry" />
        </mxCell>
        <mxCell id="jE0ygbh70ySa5CUfQvLE-26" style="edgeStyle=none;shape=connector;rounded=0;orthogonalLoop=1;jettySize=auto;html=1;strokeColor=default;align=center;verticalAlign=middle;fontFamily=Helvetica;fontSize=11;fontColor=default;labelBackgroundColor=default;endArrow=classic;" edge="1" parent="1" source="jE0ygbh70ySa5CUfQvLE-16" target="jE0ygbh70ySa5CUfQvLE-18">
          <mxGeometry relative="1" as="geometry" />
        </mxCell>
        <mxCell id="jE0ygbh70ySa5CUfQvLE-16" value="\(f_3\)" style="ellipse;whiteSpace=wrap;html=1;aspect=fixed;fontFamily=HarmonyOS Sans SC;fontSize=20;fillColor=#f8cecc;strokeColor=#b85450;" vertex="1" parent="1">
          <mxGeometry x="280" y="460" width="60" height="60" as="geometry" />
        </mxCell>
        <mxCell id="jE0ygbh70ySa5CUfQvLE-25" style="edgeStyle=none;shape=connector;rounded=0;orthogonalLoop=1;jettySize=auto;html=1;strokeColor=default;align=center;verticalAlign=middle;fontFamily=Helvetica;fontSize=11;fontColor=default;labelBackgroundColor=default;endArrow=classic;" edge="1" parent="1" source="jE0ygbh70ySa5CUfQvLE-17" target="jE0ygbh70ySa5CUfQvLE-18">
          <mxGeometry relative="1" as="geometry" />
        </mxCell>
        <mxCell id="jE0ygbh70ySa5CUfQvLE-17" value="\(f_2\)" style="ellipse;whiteSpace=wrap;html=1;aspect=fixed;fontFamily=HarmonyOS Sans SC;fontSize=20;fillColor=#f8cecc;strokeColor=#b85450;" vertex="1" parent="1">
          <mxGeometry x="280" y="340" width="60" height="60" as="geometry" />
        </mxCell>
        <mxCell id="jE0ygbh70ySa5CUfQvLE-27" style="edgeStyle=none;shape=connector;rounded=0;orthogonalLoop=1;jettySize=auto;html=1;strokeColor=default;align=center;verticalAlign=middle;fontFamily=Helvetica;fontSize=11;fontColor=default;labelBackgroundColor=default;endArrow=classic;" edge="1" parent="1" source="jE0ygbh70ySa5CUfQvLE-18" target="jE0ygbh70ySa5CUfQvLE-19">
          <mxGeometry relative="1" as="geometry" />
        </mxCell>
        <mxCell id="jE0ygbh70ySa5CUfQvLE-18" value="\(f_4\)" style="ellipse;whiteSpace=wrap;html=1;aspect=fixed;fontFamily=HarmonyOS Sans SC;fontSize=20;fillColor=#f8cecc;strokeColor=#b85450;" vertex="1" parent="1">
          <mxGeometry x="400" y="400" width="60" height="60" as="geometry" />
        </mxCell>
        <mxCell id="jE0ygbh70ySa5CUfQvLE-19" value="\(f_5\)" style="ellipse;whiteSpace=wrap;html=1;aspect=fixed;fontFamily=HarmonyOS Sans SC;fontSize=20;fillColor=#f8cecc;strokeColor=#b85450;" vertex="1" parent="1">
          <mxGeometry x="520" y="400" width="60" height="60" as="geometry" />
        </mxCell>
        <mxCell id="jE0ygbh70ySa5CUfQvLE-29" value="\(WF\)" style="text;html=1;align=center;verticalAlign=middle;whiteSpace=wrap;rounded=0;fontFamily=HarmonyOS Sans SC;fontSize=20;fontColor=default;labelBackgroundColor=default;" vertex="1" parent="1">
          <mxGeometry x="520" y="490" width="60" height="30" as="geometry" />
        </mxCell>
      </root>
    </mxGraphModel>
  </diagram>
</mxfile>
